<svg xmlns="http://www.w3.org/2000/svg" viewBox="38 48 317 104" role="img" aria-label="Setlist — a setlist for live bands">
  <defs>
    <linearGradient id="lgd" x1="0%" y1="0%" x2="0%" y2="100%">
      <stop offset="0%" stop-color="#fde68a"/>
      <stop offset="55%" stop-color="#fbbf24"/>
      <stop offset="100%" stop-color="#f97316"/>
    </linearGradient>
  </defs>

  <!-- Downbeat bars: eight beats of 4/4, beat 1 tallest -->
  <g transform="translate(40, 50)">
    <rect x="0" y="0" width="6" height="100" rx="2" fill="url(#lgd)"/>
    <rect x="12" y="27" width="6" height="46" rx="2" fill="#a8a29e"/>
    <rect x="24" y="16" width="6" height="68" rx="2" fill="#f97316"/>
    <rect x="36" y="27" width="6" height="46" rx="2" fill="#a8a29e"/>
    <rect x="48" y="0" width="6" height="100" rx="2" fill="url(#lgd)"/>
    <rect x="60" y="27" width="6" height="46" rx="2" fill="#a8a29e"/>
    <rect x="72" y="16" width="6" height="68" rx="2" fill="#f97316"/>
    <rect x="84" y="27" width="6" height="46" rx="2" fill="#a8a29e"/>
  </g>

  <!-- "Set" + "list" -->
  <path fill="#fafaf9" d="M189.89 81.25L198 81.25C197.84 73.39 191.14 67.82 181.23 67.82C171.45 67.82 164.11 73.32 164.14 81.55C164.14 88.23 168.89 92.07 176.55 94.05L181.84 95.41C186.86 96.68 190.18 98.25 190.2 101.86C190.18 105.84 186.41 108.5 180.91 108.5C175.64 108.5 171.55 106.14 171.2 101.25L162.91 101.25C163.25 110.5 170.14 115.7 180.98 115.7C192.14 115.7 198.61 110.14 198.64 101.93C198.61 93.86 191.95 90.18 184.95 88.52L180.59 87.43C176.77 86.52 172.64 84.91 172.68 81.02C172.7 77.52 175.84 74.95 181.11 74.95C186.14 74.95 189.45 77.3 189.89 81.25 M221.23 115.68C229.36 115.68 234.95 111.7 236.41 105.64L228.73 104.77C227.61 107.73 224.89 109.27 221.34 109.27C216.02 109.27 212.5 105.77 212.43 99.8L236.75 99.8L236.75 97.27C236.75 85.02 229.39 79.64 220.8 79.64C210.8 79.64 204.27 86.98 204.27 97.75C204.27 108.7 210.7 115.68 221.23 115.68M212.45 94.25C212.7 89.8 216 86.05 220.91 86.05C225.64 86.05 228.82 89.5 228.86 94.25 M261.14 80.09L254.25 80.09L254.25 71.73L246.02 71.73L246.02 80.09L241.07 80.09L241.07 86.45L246.02 86.45L246.02 105.86C245.98 112.43 250.75 115.66 256.93 115.48C259.27 115.41 260.89 114.95 261.77 114.66L260.39 108.23C259.93 108.34 259 108.55 257.98 108.55C255.91 108.55 254.25 107.82 254.25 104.5L254.25 86.45L261.14 86.45"/>
  <path fill="#fb923c" d="M274.07 68.45L268.7 68.45L268.7 115L274.07 115 M283.89 115L289.25 115L289.25 80.09L283.89 80.09M286.61 74.27C288.7 74.27 290.43 72.64 290.43 70.64C290.43 68.64 288.7 67 286.61 67C284.52 67 282.8 68.64 282.8 70.64C282.8 72.64 284.52 74.27 286.61 74.27 M323.8 87.91C322.11 82.95 318.34 79.64 311.43 79.64C304.07 79.64 298.61 83.82 298.61 89.73C298.61 94.55 301.48 97.77 307.89 99.27L313.7 100.64C317.23 101.45 318.89 103.14 318.89 105.55C318.89 108.55 315.7 111 310.7 111C306.32 111 303.57 109.11 302.61 105.36L297.52 106.64C298.77 112.57 303.66 115.73 310.8 115.73C318.91 115.73 324.43 111.3 324.43 105.27C324.43 100.41 321.39 97.34 315.16 95.82L309.98 94.55C305.84 93.52 303.98 92.14 303.98 89.45C303.98 86.45 307.16 84.27 311.43 84.27C316.11 84.27 318.05 86.86 318.98 89.27 M347.7 80.09L340.25 80.09L340.25 71.73L334.89 71.73L334.89 80.09L329.61 80.09L329.61 84.64L334.89 84.64L334.89 106.45C334.89 112.55 339.8 115.45 344.34 115.45C346.34 115.45 347.61 115.09 348.34 114.82L347.25 110C346.8 110.09 346.07 110.27 344.89 110.27C342.52 110.27 340.25 109.55 340.25 105L340.25 84.64L347.7 84.64"/>

  <!-- Tagline -->
  <path fill="#a8a29e" d="M161.24 148L162.01 145.84L165.09 145.84L165.86 148L166.83 148L164.03 140.36L163.07 140.36L160.27 148M162.3 145.02L163.52 141.57L163.58 141.57L164.8 145.02 M179.6 142.27L180.49 142.27C180.45 141.12 179.39 140.26 177.91 140.26C176.45 140.26 175.3 141.11 175.3 142.39C175.3 143.42 176.05 144.03 177.24 144.38L178.18 144.64C178.99 144.87 179.7 145.15 179.7 145.91C179.7 146.75 178.9 147.3 177.84 147.3C176.93 147.3 176.12 146.9 176.05 146.03L175.1 146.03C175.19 147.28 176.2 148.13 177.84 148.13C179.6 148.13 180.6 147.16 180.6 145.93C180.6 144.5 179.24 144.03 178.45 143.82L177.68 143.62C177.11 143.47 176.2 143.17 176.2 142.35C176.2 141.62 176.87 141.08 177.88 141.08C178.81 141.08 179.51 141.52 179.6 142.27 M184.34 148L189.01 148L189.01 147.18L185.27 147.18L185.27 144.58L188.71 144.58L188.71 143.76L185.27 143.76L185.27 141.18L188.95 141.18L188.95 140.36L184.34 140.36 M192.43 141.18L194.83 141.18L194.83 148L195.75 148L195.75 141.18L198.16 141.18L198.16 140.36L192.43 140.36 M201.81 148L206.29 148L206.29 147.18L202.74 147.18L202.74 140.36L201.81 140.36 M210.87 140.36L209.94 140.36L209.94 148L210.87 148 M219.11 142.27L220.01 142.27C219.97 141.12 218.91 140.26 217.43 140.26C215.97 140.26 214.82 141.11 214.82 142.39C214.82 143.42 215.56 144.03 216.76 144.38L217.7 144.64C218.5 144.87 219.22 145.15 219.22 145.91C219.22 146.75 218.41 147.3 217.35 147.3C216.44 147.3 215.64 146.9 215.56 146.03L214.61 146.03C214.7 147.28 215.71 148.13 217.35 148.13C219.11 148.13 220.11 147.16 220.11 145.93C220.11 144.5 218.76 144.03 217.97 143.82L217.19 143.62C216.62 143.47 215.71 143.17 215.71 142.35C215.71 141.62 216.38 141.08 217.4 141.08C218.32 141.08 219.02 141.52 219.11 142.27 M223.44 141.18L225.84 141.18L225.84 148L226.77 148L226.77 141.18L229.17 141.18L229.17 140.36L223.44 140.36 M238 148L238.92 148L238.92 144.58L242.23 144.58L242.23 143.76L238.92 143.76L238.92 141.18L242.58 141.18L242.58 140.36L238 140.36 M252.83 144.18C252.83 141.77 251.41 140.26 249.45 140.26C247.5 140.26 246.08 141.77 246.08 144.18C246.08 146.6 247.5 148.1 249.45 148.1C251.41 148.1 252.83 146.6 252.83 144.18M251.93 144.18C251.93 146.17 250.84 147.24 249.45 147.24C248.07 147.24 246.98 146.17 246.98 144.18C246.98 142.2 248.07 141.12 249.45 141.12C250.84 141.12 251.93 142.2 251.93 144.18 M256.6 148L257.52 148L257.52 145.02L259.19 145.02C259.26 145.02 259.33 145.02 259.39 145.01L261 148L262.07 148L260.35 144.85C261.32 144.51 261.77 143.72 261.77 142.71C261.77 141.36 260.97 140.36 259.18 140.36L256.6 140.36M257.52 144.18L257.52 141.18L259.15 141.18C260.39 141.18 260.87 141.79 260.87 142.71C260.87 143.62 260.39 144.18 259.16 144.18 M270.71 148L275.19 148L275.19 147.18L271.64 147.18L271.64 140.36L270.71 140.36 M279.77 140.36L278.84 140.36L278.84 148L279.77 148 M284.15 140.36L283.18 140.36L285.99 148L286.94 148L289.74 140.36L288.77 140.36L286.51 146.79L286.42 146.79 M293.16 148L297.83 148L297.83 147.18L294.09 147.18L294.09 144.58L297.53 144.58L297.53 143.76L294.09 143.76L294.09 141.18L297.77 141.18L297.77 140.36L293.16 140.36 M306.84 148L309.6 148C311.4 148 312.15 147.12 312.15 145.97C312.15 144.76 311.31 144.11 310.61 144.06L310.61 143.99C311.27 143.81 311.85 143.38 311.85 142.39C311.85 141.27 311.1 140.36 309.51 140.36L306.84 140.36M307.76 147.18L307.76 144.52L309.64 144.52C310.64 144.52 311.27 145.2 311.27 145.97C311.27 146.64 310.81 147.18 309.6 147.18M307.76 143.72L307.76 141.18L309.51 141.18C310.52 141.18 310.97 141.72 310.97 142.39C310.97 143.2 310.31 143.72 309.48 143.72 M316.21 148L316.97 145.84L320.06 145.84L320.83 148L321.8 148L319 140.36L318.04 140.36L315.24 148M317.27 145.02L318.49 141.57L318.55 141.57L319.77 145.02 M331.27 140.36L330.36 140.36L330.36 146.37L330.29 146.37L326.11 140.36L325.22 140.36L325.22 148L326.14 148L326.14 142L326.22 142L330.38 148L331.27 148 M337.7 148C340.03 148 341.34 146.55 341.34 144.17C341.34 141.8 340.03 140.36 337.81 140.36L335.34 140.36L335.34 148M336.27 147.18L336.27 141.18L337.75 141.18C339.54 141.18 340.45 142.32 340.45 144.17C340.45 146.03 339.54 147.18 337.64 147.18 M349.29 142.27L350.19 142.27C350.14 141.12 349.08 140.26 347.61 140.26C346.14 140.26 345 141.11 345 142.39C345 143.42 345.74 144.03 346.93 144.38L347.87 144.64C348.68 144.87 349.39 145.15 349.39 145.91C349.39 146.75 348.59 147.3 347.53 147.3C346.62 147.3 345.82 146.9 345.74 146.03L344.79 146.03C344.88 147.28 345.89 148.13 347.53 148.13C349.29 148.13 350.29 147.16 350.29 145.93C350.29 144.5 348.93 144.03 348.14 143.82L347.37 143.62C346.8 143.47 345.89 143.17 345.89 142.35C345.89 141.62 346.56 141.08 347.58 141.08C348.5 141.08 349.2 141.52 349.29 142.27"/>
</svg>
